<?xml version="1.0" encoding="utf-8"?>
<!-- Generator: Adobe Illustrator 27.6.1, SVG Export Plug-In . SVG Version: 6.00 Build 0)  -->
<svg version="1.1" id="레이어_1" xmlns="http://www.w3.org/2000/svg" xmlns:xlink="http://www.w3.org/1999/xlink" x="0px"
	 y="0px" viewBox="0 0 1024 1024" style="enable-background:new 0 0 1024 1024;" xml:space="preserve">
<style type="text/css">
	.st0{fill:#FFFEE9;}
	.st1{fill:#FFEBB4;stroke:#231F20;stroke-width:25;stroke-miterlimit:10;}
</style>
<rect class="st0" width="1024" height="1024"/>
<g>
	<path class="st1" d="M270.02,468.72c0,0-4.82,202.78,0,213.1s71.7,101.39,246.96,101.39s238.76-94.82,242.99-103.27
		s0-213.87,0-213.87L270.02,468.72z"/>
	<path class="st1" d="M82.84,384.19c-0.2-24.22,399.28-143.41,429.85-143.41s428.47,121.12,428.47,143.41S541.73,538.85,512,538.85
		S83.03,407.91,82.84,384.19z"/>
	<line class="st1" x1="881.63" y1="416.38" x2="881.63" y2="552.06"/>
	<path class="st1" d="M881.63,554.24l-38.68,122.61c0,0,16.09,13.14,42.33,13.14c26.25,0,39.79-19.71,39.79-19.71L881.63,554.24z"/>
</g>
</svg>
