<?xml version="1.0" encoding="utf-8"?>
<!-- Generator: Adobe Illustrator 27.6.1, SVG Export Plug-In . SVG Version: 6.00 Build 0)  -->
<svg version="1.1" id="레이어_1" xmlns="http://www.w3.org/2000/svg" xmlns:xlink="http://www.w3.org/1999/xlink" x="0px"
	 y="0px" viewBox="0 0 1024 1024" style="enable-background:new 0 0 1024 1024;" xml:space="preserve">
<style type="text/css">
	.st0{fill:#FFFFFF;}
	.st1{enable-background:new    ;}
	.st2{fill:#7964AC;}
</style>
<rect class="st0" width="1024" height="1024"/>
<g class="st1">
	<path class="st2" d="M263.8,382.2v50h113.6v46H263.8v54h131.6v46.4H204.2V336.2h191.2v46H263.8z M427.4,652.2V315.8h52.8v336.4
		H427.4z"/>
	<path class="st2" d="M827.8,499H524.2v-42.8h303.6V499z M561,566.2h176v-16.8H561v-32.8h232.4v86H612.6v14h180.8v37.6h-234l1.6-0.4
		V566.2z M795,314.2v39.2H559.8v-39.2H795z M737,401h58v38.8H559.8V401h56.4l-28.8-36.4h52l26.8,34.4h25.2l18.4-34.4h51.6L737,401z"
		/>
</g>
</svg>
