<?xml version="1.0" encoding="utf-8"?>
<!-- Generator: Adobe Illustrator 27.6.1, SVG Export Plug-In . SVG Version: 6.00 Build 0)  -->
<svg version="1.1" id="레이어_1" xmlns="http://www.w3.org/2000/svg" xmlns:xlink="http://www.w3.org/1999/xlink" x="0px"
	 y="0px" viewBox="0 0 1024 1024" style="enable-background:new 0 0 1024 1024;" xml:space="preserve">
<style type="text/css">
	.st0{fill:#FFFFFF;}
	.st1{fill:#FFEBB4;stroke:#231F20;stroke-width:25;stroke-miterlimit:10;}
</style>
<rect y="0" class="st0" width="1024" height="1024"/>
<g>
	<path class="st1" d="M270,468.7c0,0-4.8,202.8,0,213.1s71.7,101.4,247,101.4s238.8-94.8,243-103.3s0-213.9,0-213.9L270,468.7z"/>
	<path class="st1" d="M82.8,384.2C82.6,360,482.1,240.8,512.7,240.8s428.5,121.1,428.5,143.4S541.7,538.8,512,538.8
		S83,407.9,82.8,384.2z"/>
	<line class="st1" x1="881.6" y1="416.4" x2="881.6" y2="552.1"/>
	<path class="st1" d="M881.6,554.2L843,676.8c0,0,16.1,13.1,42.3,13.1c26.2,0,39.8-19.7,39.8-19.7L881.6,554.2z"/>
</g>
</svg>
